<svg width="53" height="12" viewBox="0 0 53 12" fill="none" xmlns="http://www.w3.org/2000/svg">
<g clip-path="url(#clip0_64_83)">
<g clip-path="url(#clip1_64_83)">
<mask id="mask0_64_83" style="mask-type:luminance" maskUnits="userSpaceOnUse" x="0" y="0" width="53" height="13">
<path d="M0.580078 13H52.5801V0H0.580078V13Z" fill="white"/>
</mask>
<g mask="url(#mask0_64_83)">
<path d="M0.936433 7.11079L4.46519 9.0646L6.39401 12.6391C6.51392 12.8612 6.74346 13 6.99356 13C7.24365 13 7.4732 12.8612 7.59311 12.6391L9.52194 9.0646L12.8965 7.19407H51.8949C52.2718 7.19407 52.5801 6.88174 52.5801 6.5C52.5801 6.11826 52.2718 5.80593 51.8949 5.80593H12.8999L9.52536 3.9354L7.59654 0.360919C7.47663 0.138816 7.24709 0 6.99699 0C6.7469 0 6.51736 0.138816 6.39744 0.360919L4.46862 3.9354L0.939859 5.88922C0.720598 6.01068 0.583559 6.24319 0.583559 6.49653C0.580133 6.75334 0.717172 6.98932 0.936433 7.11079ZM5.29771 5.05633C5.41419 4.99386 5.50669 4.89669 5.56836 4.7787L6.99356 2.14122L8.41877 4.7787C8.48044 4.89669 8.57636 4.99039 8.68942 5.05633L11.2966 6.5L8.68942 7.94367C8.57636 8.00614 8.48044 8.10331 8.41877 8.2213L6.99356 10.8623L5.56836 8.2213C5.50669 8.10331 5.41076 8.00961 5.29771 7.94367L2.69053 6.5L5.29771 5.05633Z" fill="#D69C4F"/>
</g>
</g>
</g>
<defs>
<clipPath id="clip0_64_83">
<rect width="52" height="12" fill="white" transform="translate(0.580078)"/>
</clipPath>
<clipPath id="clip1_64_83">
<rect width="52" height="13" fill="white" transform="translate(0.580078)"/>
</clipPath>
</defs>
</svg>
