<svg width="53" height="12" viewBox="0 0 53 12" fill="none" xmlns="http://www.w3.org/2000/svg">
<path d="M52.6164 7.11079L49.0876 9.0646L47.1588 12.6391C47.0389 12.8612 46.8094 13 46.5593 13C46.3092 13 46.0796 12.8612 45.9597 12.6391L44.0309 9.0646L40.6563 7.19407H1.65785C1.28099 7.19407 0.972656 6.88174 0.972656 6.5C0.972656 6.11826 1.28099 5.80593 1.65785 5.80593H40.6529L44.0275 3.9354L45.9563 0.360919C46.0762 0.138816 46.3057 0 46.5558 0C46.8059 0 47.0355 0.138816 47.1554 0.360919L49.0842 3.9354L52.613 5.88922C52.8322 6.01068 52.9693 6.24319 52.9693 6.49653C52.9727 6.75334 52.8357 6.98932 52.6164 7.11079ZM48.2551 5.05633C48.1386 4.99386 48.0461 4.89669 47.9845 4.7787L46.5593 2.14122L45.1341 4.7787C45.0724 4.89669 44.9765 4.99039 44.8634 5.05633L42.2562 6.5L44.8634 7.94367C44.9765 8.00614 45.0724 8.10331 45.1341 8.2213L46.5593 10.8623L47.9845 8.2213C48.0461 8.10331 48.1421 8.00961 48.2551 7.94367L50.8623 6.5L48.2551 5.05633Z" fill="#D69C4F"/>
</svg>
